<svg xmlns="http://www.w3.org/2000/svg" viewBox="0 0 1200 675" role="img" aria-labelledby="t d">
  <title id="t">Data visualization thumbnail placeholder</title>
  <desc id="d">Abstract chart lines and bars on a dark gradient background.</desc>
  <defs>
    <linearGradient id="bg" x1="0" y1="0" x2="1" y2="1">
      <stop offset="0%" stop-color="#0b1f4d"/>
      <stop offset="100%" stop-color="#153d78"/>
    </linearGradient>
    <linearGradient id="line" x1="0" y1="0" x2="1" y2="0">
      <stop offset="0%" stop-color="#7dd3fc"/>
      <stop offset="100%" stop-color="#60a5fa"/>
    </linearGradient>
  </defs>
  <rect width="1200" height="675" fill="url(#bg)"/>
  <rect x="120" y="120" width="960" height="435" rx="24" fill="#0a1535" opacity="0.85"/>
  <g opacity="0.35" stroke="#9ca3af" stroke-width="2">
    <line x1="170" y1="500" x2="1030" y2="500"/>
    <line x1="170" y1="430" x2="1030" y2="430"/>
    <line x1="170" y1="360" x2="1030" y2="360"/>
    <line x1="170" y1="290" x2="1030" y2="290"/>
    <line x1="170" y1="220" x2="1030" y2="220"/>
  </g>
  <g fill="#38bdf8">
    <rect x="220" y="390" width="55" height="110" rx="8"/>
    <rect x="305" y="330" width="55" height="170" rx="8"/>
    <rect x="390" y="365" width="55" height="135" rx="8"/>
    <rect x="475" y="285" width="55" height="215" rx="8"/>
  </g>
  <polyline points="610,440 690,360 770,390 850,280 930,230" fill="none" stroke="url(#line)" stroke-width="10" stroke-linecap="round" stroke-linejoin="round"/>
  <g fill="#7dd3fc">
    <circle cx="610" cy="440" r="8"/>
    <circle cx="690" cy="360" r="8"/>
    <circle cx="770" cy="390" r="8"/>
    <circle cx="850" cy="280" r="8"/>
    <circle cx="930" cy="230" r="8"/>
  </g>
  <text x="170" y="185" fill="#dbeafe" font-family="Inter, Arial, sans-serif" font-size="48" font-weight="700">Data Visualisation</text>
  <text x="170" y="540" fill="#93c5fd" font-family="Inter, Arial, sans-serif" font-size="28">Preview image unavailable</text>
</svg>
